<svg width="174" height="42" viewBox="0 0 174 42" fill="none" xmlns="http://www.w3.org/2000/svg">
<path d="M11.8376 41L0.765363 4.18602H13.0112L18.8534 30.7441H19.0575L24.8998 4.18602H37.1456L26.0734 41H11.8376ZM45.1054 10.3089C42.1715 10.3089 39.9265 8.03835 39.9265 5.33407C39.9265 2.62979 42.1715 0.359208 45.1054 0.359208C48.0393 0.359208 50.2844 2.62979 50.2844 5.33407C50.2844 8.03835 48.0393 10.3089 45.1054 10.3089ZM39.8754 41V12.8346H50.3354V41H39.8754ZM73.4749 41.6123C69.3929 41.6123 66.3315 39.5713 65.0559 36.1782H64.8518V41H54.3918V4.18602H64.8518V17.9115H65.0559C66.3825 14.3398 69.3929 12.2223 73.4239 12.2223C80.5162 12.2223 84.4706 17.4523 84.4706 26.8918V26.9173C84.4706 36.3058 80.4652 41.6123 73.4749 41.6123ZM69.3674 33.1933C72.0972 33.1933 73.8576 30.7952 73.8576 26.9173V26.8918C73.8576 22.9629 72.0717 20.6413 69.3674 20.6413C66.6376 20.6413 64.8518 22.9629 64.8518 26.9173V26.9428C64.8518 30.8717 66.6121 33.1933 69.3674 33.1933ZM101.666 41.6123C92.5324 41.6123 86.9708 36.0762 86.9708 26.9173V26.8918C86.9708 17.733 92.5324 12.2223 101.334 12.2223C110.11 12.2223 115.723 17.733 115.723 26.305V29.2644H97.1756C97.2777 32.5045 99.0125 34.4179 101.87 34.4179C104.625 34.4179 105.977 32.7596 106.258 31.9432L106.283 31.8667H115.595L115.519 32.1983C114.677 35.8721 111.462 41.6123 101.666 41.6123ZM101.615 19.4168C99.3442 19.4168 97.7624 20.8454 97.3032 23.3456H105.926C105.467 20.8454 103.885 19.4168 101.615 19.4168ZM134.143 41.6633C125.086 41.6633 119.065 37.1222 118.529 30.2339L118.504 29.9022H128.811L128.862 30.2084C129.142 31.8412 131.056 33.2698 134.117 33.2698C137.179 33.2698 139.015 31.7391 139.015 29.5961V29.5451C139.015 27.0449 137 25.6927 133.25 25.6927H129.448V18.5749H133.25C136.592 18.5749 138.531 17.1972 138.531 14.9266V14.8756C138.531 12.7326 136.821 11.406 134.066 11.406C131.183 11.406 129.397 12.8091 129.168 14.7991L129.142 15.0287H119.397L119.422 14.646C119.881 7.88528 125.494 3.52271 134.066 3.52271C142.893 3.52271 148.48 7.37504 148.48 13.3704V13.4214C148.48 18.0646 144.96 20.9475 140.929 21.7384V21.9425C146.516 22.5292 150.011 25.5141 150.011 30.2849V30.3359C150.011 37.3263 143.965 41.6633 134.143 41.6633ZM163.073 41V13.4469H162.869L153.838 19.4168V10.36L163.073 4.18602H173.891V41H163.073Z" fill="currentColor"/>
</svg>