<svg width="56" height="39" viewBox="0 0 56 39" fill="none" xmlns="http://www.w3.org/2000/svg">
<path d="M16.1952 38.6633C7.13836 38.6633 1.11751 34.1222 0.581751 27.2339L0.556239 26.9022H10.8631L10.9142 27.2084C11.1948 28.8412 13.1082 30.2698 16.1697 30.2698C19.2311 30.2698 21.068 28.7391 21.068 26.5961V26.5451C21.068 24.0449 19.0525 22.6927 15.3022 22.6927H11.5009V15.5749H15.3022C18.6443 15.5749 20.5832 14.1972 20.5832 11.9266V11.8756C20.5832 9.73258 18.8739 8.40595 16.1186 8.40595C13.2358 8.40595 11.4499 9.80912 11.2203 11.7991L11.1948 12.0287H1.44916L1.47467 11.646C1.93389 4.88528 7.54656 0.52271 16.1186 0.52271C24.9458 0.52271 30.533 4.37504 30.533 10.3704V10.4214C30.533 15.0646 27.0123 17.9475 22.9814 18.7384V18.9425C28.5685 19.5292 32.0637 22.5141 32.0637 27.2849V27.3359C32.0637 34.3263 26.0173 38.6633 16.1952 38.6633ZM45.1259 38V10.4469H44.9218L35.8905 16.4168V7.35996L45.1259 1.18602H55.943V38H45.1259Z" fill="#101827"/>
</svg>